<mxfile host="65bd71144e">
    <diagram id="vyJPvvBAsfCQk672KLrS" name="Page-1">
        <mxGraphModel dx="1426" dy="1567" grid="1" gridSize="10" guides="1" tooltips="1" connect="1" arrows="1" fold="1" page="1" pageScale="1" pageWidth="827" pageHeight="1169" math="0" shadow="0">
            <root>
                <mxCell id="0"/>
                <mxCell id="1" parent="0"/>
                <mxCell id="80" value="Notification&lt;br&gt;&lt;i&gt;&lt;font style=&quot;font-size: 10px&quot; color=&quot;#808080&quot;&gt;message delivery&lt;/font&gt;&lt;/i&gt;" style="rounded=1;whiteSpace=wrap;html=1;fillColor=#f5f5f5;verticalAlign=top;fontColor=#333333;strokeColor=#666666;" parent="1" vertex="1">
                    <mxGeometry x="220" y="-340" width="150" height="100" as="geometry"/>
                </mxCell>
                <mxCell id="25" style="edgeStyle=orthogonalEdgeStyle;html=1;exitX=0.5;exitY=0.5;exitDx=0;exitDy=0;exitPerimeter=0;startArrow=block;startFill=1;endArrow=none;endFill=0;entryX=0;entryY=0.5;entryDx=0;entryDy=0;" parent="1" source="2" target="18" edge="1">
                    <mxGeometry relative="1" as="geometry">
                        <mxPoint x="268" y="-290" as="targetPoint"/>
                        <Array as="points">
                            <mxPoint x="230" y="-440"/>
                            <mxPoint x="230" y="-280"/>
                            <mxPoint x="240" y="-280"/>
                        </Array>
                    </mxGeometry>
                </mxCell>
                <mxCell id="26" value="as:actor / as:origin / as:target [1..1]" style="edgeLabel;html=1;align=center;verticalAlign=middle;resizable=0;points=[];" parent="25" vertex="1" connectable="0">
                    <mxGeometry x="-0.098" relative="1" as="geometry">
                        <mxPoint x="10" as="offset"/>
                    </mxGeometry>
                </mxCell>
                <mxCell id="35" style="edgeStyle=orthogonalEdgeStyle;html=1;exitX=0.5;exitY=0;exitDx=0;exitDy=0;exitPerimeter=0;entryX=0.5;entryY=1;entryDx=0;entryDy=0;startArrow=none;startFill=0;endArrow=oval;endFill=0;" parent="1" source="2" target="16" edge="1">
                    <mxGeometry relative="1" as="geometry"/>
                </mxCell>
                <mxCell id="36" value="has" style="edgeLabel;html=1;align=center;verticalAlign=middle;resizable=0;points=[];" parent="35" vertex="1" connectable="0">
                    <mxGeometry x="0.0444" y="-2" relative="1" as="geometry">
                        <mxPoint as="offset"/>
                    </mxGeometry>
                </mxCell>
                <mxCell id="2" value="Agent&lt;br&gt;&lt;i style=&quot;font-size: 10px&quot;&gt;&lt;font color=&quot;#808080&quot;&gt;Person, social entity &lt;br&gt;or software&lt;/font&gt;&lt;/i&gt;" style="shape=umlActor;verticalLabelPosition=bottom;verticalAlign=top;html=1;outlineConnect=0;" parent="1" vertex="1">
                    <mxGeometry x="30" y="-470" width="30" height="60" as="geometry"/>
                </mxCell>
                <mxCell id="23" style="edgeStyle=orthogonalEdgeStyle;html=1;exitX=0;exitY=0.5;exitDx=0;exitDy=0;startArrow=none;startFill=0;endArrow=block;endFill=1;" parent="1" source="4" target="41" edge="1">
                    <mxGeometry relative="1" as="geometry">
                        <mxPoint x="40" y="-190" as="targetPoint"/>
                        <Array as="points">
                            <mxPoint x="-45" y="-40"/>
                        </Array>
                    </mxGeometry>
                </mxCell>
                <mxCell id="24" value="owner [1..*]" style="edgeLabel;html=1;align=center;verticalAlign=middle;resizable=0;points=[];" parent="23" vertex="1" connectable="0">
                    <mxGeometry x="-0.1804" y="-1" relative="1" as="geometry">
                        <mxPoint as="offset"/>
                    </mxGeometry>
                </mxCell>
                <mxCell id="4" value="&lt;div&gt;Data Pod&lt;br&gt;&lt;/div&gt;&lt;div&gt;&lt;i&gt;&lt;font style=&quot;font-size: 10px&quot; color=&quot;#808080&quot;&gt;Solid compliant storage&lt;/font&gt;&lt;/i&gt;&lt;/div&gt;" style="rounded=1;whiteSpace=wrap;html=1;strokeWidth=1;strokeColor=default;align=center;verticalAlign=middle;spacingRight=10;fillColor=none;" parent="1" vertex="1">
                    <mxGeometry x="60" y="-70" width="110" height="60" as="geometry"/>
                </mxCell>
                <mxCell id="20" style="edgeStyle=none;html=1;exitX=1;exitY=0.5;exitDx=0;exitDy=0;endArrow=block;endFill=1;dashed=1;" parent="1" source="5" target="6" edge="1">
                    <mxGeometry relative="1" as="geometry"/>
                </mxCell>
                <mxCell id="34" value="is a" style="edgeLabel;html=1;align=center;verticalAlign=middle;resizable=0;points=[];" parent="20" vertex="1" connectable="0">
                    <mxGeometry x="0.0037" relative="1" as="geometry">
                        <mxPoint y="-1" as="offset"/>
                    </mxGeometry>
                </mxCell>
                <mxCell id="66" style="edgeStyle=orthogonalEdgeStyle;html=1;startArrow=none;startFill=0;endArrow=block;endFill=1;exitX=0.5;exitY=0;exitDx=0;exitDy=0;" parent="1" source="5" target="42" edge="1">
                    <mxGeometry relative="1" as="geometry">
                        <Array as="points">
                            <mxPoint x="95" y="-260"/>
                            <mxPoint x="200" y="-260"/>
                        </Array>
                    </mxGeometry>
                </mxCell>
                <mxCell id="68" value="owner [1..*]" style="edgeLabel;html=1;align=center;verticalAlign=middle;resizable=0;points=[];" parent="66" vertex="1" connectable="0">
                    <mxGeometry x="0.6485" y="-1" relative="1" as="geometry">
                        <mxPoint x="-92" y="35" as="offset"/>
                    </mxGeometry>
                </mxCell>
                <mxCell id="5" value="&lt;div&gt;Service Hub&lt;br&gt;&lt;/div&gt;&lt;div style=&quot;font-size: 10px&quot;&gt;&lt;font color=&quot;#808080&quot;&gt;&lt;i&gt;Value-added services on artefacts; minimal implementation requirements&lt;/i&gt;&lt;/font&gt;&lt;/div&gt;" style="rounded=1;whiteSpace=wrap;html=1;strokeWidth=1;strokeColor=default;align=center;verticalAlign=middle;spacingRight=10;fillColor=none;" parent="1" vertex="1">
                    <mxGeometry x="20" y="-150" width="150" height="60" as="geometry"/>
                </mxCell>
                <mxCell id="13" style="edgeStyle=none;html=1;exitX=1;exitY=0.25;exitDx=0;exitDy=0;entryX=0;entryY=0.5;entryDx=0;entryDy=0;endArrow=oval;endFill=0;" parent="1" source="6" target="11" edge="1">
                    <mxGeometry relative="1" as="geometry"/>
                </mxCell>
                <mxCell id="37" value="serves [0..*]" style="edgeLabel;html=1;align=center;verticalAlign=middle;resizable=0;points=[];" parent="13" vertex="1" connectable="0">
                    <mxGeometry x="-0.2348" y="1" relative="1" as="geometry">
                        <mxPoint y="1" as="offset"/>
                    </mxGeometry>
                </mxCell>
                <mxCell id="14" style="edgeStyle=none;html=1;exitX=1;exitY=0.5;exitDx=0;exitDy=0;entryX=0;entryY=0.5;entryDx=0;entryDy=0;endArrow=oval;endFill=0;" parent="1" source="6" target="8" edge="1">
                    <mxGeometry relative="1" as="geometry"/>
                </mxCell>
                <mxCell id="38" value="serves [0..*]" style="edgeLabel;html=1;align=center;verticalAlign=middle;resizable=0;points=[];" parent="14" vertex="1" connectable="0">
                    <mxGeometry x="0.0333" y="2" relative="1" as="geometry">
                        <mxPoint x="-6" y="2" as="offset"/>
                    </mxGeometry>
                </mxCell>
                <mxCell id="15" style="edgeStyle=none;html=1;exitX=1;exitY=0.75;exitDx=0;exitDy=0;entryX=0;entryY=0.5;entryDx=0;entryDy=0;endArrow=oval;endFill=0;" parent="1" source="6" target="7" edge="1">
                    <mxGeometry relative="1" as="geometry"/>
                </mxCell>
                <mxCell id="19" style="edgeStyle=none;html=1;endArrow=none;endFill=0;startArrow=block;startFill=1;dashed=1;exitX=0.25;exitY=1;exitDx=0;exitDy=0;entryX=1;entryY=0.5;entryDx=0;entryDy=0;" parent="1" source="6" target="4" edge="1">
                    <mxGeometry relative="1" as="geometry"/>
                </mxCell>
                <mxCell id="33" value="is a&amp;nbsp;" style="edgeLabel;html=1;align=center;verticalAlign=middle;resizable=0;points=[];" parent="19" vertex="1" connectable="0">
                    <mxGeometry x="0.1103" y="-2" relative="1" as="geometry">
                        <mxPoint as="offset"/>
                    </mxGeometry>
                </mxCell>
                <mxCell id="6" value="Server Node&lt;br&gt;&lt;font style=&quot;font-size: 10px&quot; color=&quot;#808080&quot;&gt;&lt;i&gt;Serves artefact-related resources over HTTP&lt;/i&gt;&lt;/font&gt;" style="rounded=1;whiteSpace=wrap;html=1;fillColor=none;" parent="1" vertex="1">
                    <mxGeometry x="235" y="-160" width="120" height="50" as="geometry"/>
                </mxCell>
                <mxCell id="27" style="edgeStyle=orthogonalEdgeStyle;html=1;entryX=1;entryY=0.25;entryDx=0;entryDy=0;startArrow=none;startFill=0;endArrow=block;endFill=1;exitX=1;exitY=0.25;exitDx=0;exitDy=0;" parent="1" source="7" target="18" edge="1">
                    <mxGeometry relative="1" as="geometry">
                        <Array as="points">
                            <mxPoint x="730" y="-35"/>
                            <mxPoint x="730" y="-287"/>
                        </Array>
                        <mxPoint x="570" y="-90" as="sourcePoint"/>
                    </mxGeometry>
                </mxCell>
                <mxCell id="28" value="ldp:contains" style="edgeLabel;html=1;align=center;verticalAlign=middle;resizable=0;points=[];" parent="27" vertex="1" connectable="0">
                    <mxGeometry x="0.4416" relative="1" as="geometry">
                        <mxPoint as="offset"/>
                    </mxGeometry>
                </mxCell>
                <mxCell id="7" value="inbox&lt;br&gt;&lt;i&gt;&lt;font style=&quot;font-size: 10px&quot; color=&quot;#808080&quot;&gt;Delivered notifications&lt;/font&gt;&lt;/i&gt;" style="rounded=1;whiteSpace=wrap;html=1;fillColor=none;" parent="1" vertex="1">
                    <mxGeometry x="480" y="-46.25" width="120" height="46.25" as="geometry"/>
                </mxCell>
                <mxCell id="29" style="edgeStyle=orthogonalEdgeStyle;html=1;entryX=1;entryY=0.75;entryDx=0;entryDy=0;startArrow=none;startFill=0;endArrow=block;endFill=1;exitX=1;exitY=0.25;exitDx=0;exitDy=0;" parent="1" source="8" target="18" edge="1">
                    <mxGeometry relative="1" as="geometry">
                        <Array as="points">
                            <mxPoint x="640" y="-175"/>
                            <mxPoint x="640" y="-262"/>
                        </Array>
                    </mxGeometry>
                </mxCell>
                <mxCell id="30" value="ldp:contains / as:items [0..*]" style="edgeLabel;html=1;align=center;verticalAlign=middle;resizable=0;points=[];" parent="29" vertex="1" connectable="0">
                    <mxGeometry x="0.599" y="-1" relative="1" as="geometry">
                        <mxPoint x="25" as="offset"/>
                    </mxGeometry>
                </mxCell>
                <mxCell id="64" style="edgeStyle=orthogonalEdgeStyle;html=1;exitX=0.5;exitY=1;exitDx=0;exitDy=0;entryX=0.5;entryY=0;entryDx=0;entryDy=0;startArrow=none;startFill=0;endArrow=oval;endFill=0;" parent="1" source="8" target="63" edge="1">
                    <mxGeometry relative="1" as="geometry"/>
                </mxCell>
                <mxCell id="65" value="has [1..1]" style="edgeLabel;html=1;align=center;verticalAlign=middle;resizable=0;points=[];" parent="64" vertex="1" connectable="0">
                    <mxGeometry x="-0.0549" y="-1" relative="1" as="geometry">
                        <mxPoint as="offset"/>
                    </mxGeometry>
                </mxCell>
                <mxCell id="8" value="Lifecycle Event Log&lt;br&gt;&lt;i&gt;&lt;font style=&quot;font-size: 10px&quot; color=&quot;#808080&quot;&gt;List of notifications representing an artefact's lifecycle&lt;/font&gt;&lt;/i&gt;" style="rounded=1;whiteSpace=wrap;html=1;fillColor=none;" parent="1" vertex="1">
                    <mxGeometry x="480" y="-190" width="120" height="60" as="geometry"/>
                </mxCell>
                <mxCell id="31" style="edgeStyle=orthogonalEdgeStyle;html=1;exitX=0;exitY=0.25;exitDx=0;exitDy=0;entryX=0.75;entryY=1;entryDx=0;entryDy=0;startArrow=block;startFill=1;endArrow=none;endFill=0;" parent="1" source="11" target="18" edge="1">
                    <mxGeometry relative="1" as="geometry"/>
                </mxCell>
                <mxCell id="32" value="as:object / as:context [0..*]" style="edgeLabel;html=1;align=center;verticalAlign=middle;resizable=0;points=[];" parent="31" vertex="1" connectable="0">
                    <mxGeometry x="0.2176" y="-3" relative="1" as="geometry">
                        <mxPoint x="26" as="offset"/>
                    </mxGeometry>
                </mxCell>
                <mxCell id="11" value="Artefact&lt;br&gt;&amp;nbsp;&lt;i&gt;&lt;font style=&quot;font-size: 10px&quot; color=&quot;#808080&quot;&gt;What every interaction &lt;br&gt;is about&lt;/font&gt;&lt;/i&gt;" style="rounded=1;whiteSpace=wrap;html=1;fillColor=none;strokeColor=#000000;strokeWidth=1;" parent="1" vertex="1">
                    <mxGeometry x="480" y="-250" width="120" height="52.5" as="geometry"/>
                </mxCell>
                <mxCell id="75" style="edgeStyle=orthogonalEdgeStyle;html=1;exitX=1;exitY=0.5;exitDx=0;exitDy=0;entryX=1;entryY=0.75;entryDx=0;entryDy=0;jumpStyle=none;" parent="1" source="16" target="7" edge="1">
                    <mxGeometry relative="1" as="geometry">
                        <Array as="points">
                            <mxPoint x="760" y="-535"/>
                            <mxPoint x="760" y="-12"/>
                        </Array>
                    </mxGeometry>
                </mxCell>
                <mxCell id="76" value="ldp:inbox [1..*]" style="edgeLabel;html=1;align=center;verticalAlign=middle;resizable=0;points=[];" parent="75" vertex="1" connectable="0">
                    <mxGeometry x="-0.7187" y="1" relative="1" as="geometry">
                        <mxPoint as="offset"/>
                    </mxGeometry>
                </mxCell>
                <mxCell id="16" value="WebID&lt;br&gt;&lt;i&gt;&lt;font style=&quot;font-size: 10px&quot; color=&quot;#808080&quot;&gt;Agent identifcation and profile information&lt;/font&gt;&lt;/i&gt;" style="rounded=1;whiteSpace=wrap;html=1;fillColor=none;" parent="1" vertex="1">
                    <mxGeometry x="-15" y="-560" width="120" height="50" as="geometry"/>
                </mxCell>
                <mxCell id="18" value="Activity&lt;br&gt;&lt;font style=&quot;font-size: 10px&quot; color=&quot;#808080&quot;&gt;&lt;i&gt;Description of a performed action&lt;/i&gt;&lt;/font&gt;" style="rounded=1;whiteSpace=wrap;html=1;fillColor=default;" parent="1" vertex="1">
                    <mxGeometry x="240" y="-300" width="110" height="50" as="geometry"/>
                </mxCell>
                <mxCell id="40" value="serves [0..*]" style="edgeLabel;html=1;align=center;verticalAlign=middle;resizable=0;points=[];" parent="1" vertex="1" connectable="0">
                    <mxGeometry x="389.99817920024134" y="-99.99552074840516" as="geometry"/>
                </mxCell>
                <mxCell id="45" style="edgeStyle=orthogonalEdgeStyle;html=1;exitX=0.25;exitY=0.1;exitDx=0;exitDy=0;exitPerimeter=0;entryX=0;entryY=1;entryDx=0;entryDy=0;entryPerimeter=0;startArrow=none;startFill=0;endArrow=block;endFill=1;dashed=1;" parent="1" source="41" target="2" edge="1">
                    <mxGeometry relative="1" as="geometry">
                        <Array as="points">
                            <mxPoint x="-50" y="-344"/>
                            <mxPoint x="-50" y="-410"/>
                        </Array>
                    </mxGeometry>
                </mxCell>
                <mxCell id="46" value="is a" style="edgeLabel;html=1;align=center;verticalAlign=middle;resizable=0;points=[];" parent="45" vertex="1" connectable="0">
                    <mxGeometry x="0.0386" relative="1" as="geometry">
                        <mxPoint as="offset"/>
                    </mxGeometry>
                </mxCell>
                <mxCell id="41" value="Data Pod Owner&lt;br&gt;&lt;font style=&quot;font-size: 10px&quot; color=&quot;#808080&quot;&gt;&lt;i&gt;Person, social entity &lt;br&gt;that is considered to &lt;br&gt;have the rights and &lt;br&gt;responsibilities of a &lt;br&gt;data storage.&lt;/i&gt;&lt;/font&gt;" style="shape=umlActor;verticalLabelPosition=middle;verticalAlign=middle;html=1;outlineConnect=0;labelPosition=left;align=left;spacingRight=13;spacingLeft=-70;" parent="1" vertex="1">
                    <mxGeometry x="-60" y="-350" width="30" height="60" as="geometry"/>
                </mxCell>
                <mxCell id="47" style="edgeStyle=orthogonalEdgeStyle;html=1;exitX=0.5;exitY=0;exitDx=0;exitDy=0;exitPerimeter=0;entryX=1;entryY=1;entryDx=0;entryDy=0;entryPerimeter=0;startArrow=none;startFill=0;endArrow=block;endFill=1;dashed=1;" parent="1" source="42" target="2" edge="1">
                    <mxGeometry relative="1" as="geometry">
                        <Array as="points">
                            <mxPoint x="195" y="-410"/>
                        </Array>
                    </mxGeometry>
                </mxCell>
                <mxCell id="48" value="is a" style="edgeLabel;html=1;align=center;verticalAlign=middle;resizable=0;points=[];" parent="47" vertex="1" connectable="0">
                    <mxGeometry x="-0.0376" y="-1" relative="1" as="geometry">
                        <mxPoint as="offset"/>
                    </mxGeometry>
                </mxCell>
                <mxCell id="42" value="Service Hub&lt;br&gt;Owner&lt;br&gt;&lt;i style=&quot;font-size: 10px&quot;&gt;&lt;font color=&quot;#808080&quot;&gt;Person, social entity &lt;br&gt;maintaining the service &lt;br&gt;and the hub.&lt;/font&gt;&lt;/i&gt;" style="shape=umlActor;verticalLabelPosition=middle;verticalAlign=middle;html=1;outlineConnect=0;labelPosition=left;align=left;spacingLeft=-70;" parent="1" vertex="1">
                    <mxGeometry x="180" y="-350" width="30" height="60" as="geometry"/>
                </mxCell>
                <mxCell id="53" style="edgeStyle=orthogonalEdgeStyle;html=1;exitX=0.5;exitY=1;exitDx=0;exitDy=0;dashed=1;startArrow=none;startFill=0;endArrow=block;endFill=1;" parent="1" source="51" target="59" edge="1">
                    <mxGeometry relative="1" as="geometry"/>
                </mxCell>
                <mxCell id="56" value="is a" style="edgeLabel;html=1;align=center;verticalAlign=middle;resizable=0;points=[];" parent="53" vertex="1" connectable="0">
                    <mxGeometry x="-0.3922" y="-1" relative="1" as="geometry">
                        <mxPoint as="offset"/>
                    </mxGeometry>
                </mxCell>
                <mxCell id="70" style="edgeStyle=orthogonalEdgeStyle;html=1;exitX=1;exitY=0.5;exitDx=0;exitDy=0;entryX=0;entryY=0.5;entryDx=0;entryDy=0;startArrow=none;startFill=0;endArrow=oval;endFill=0;jumpStyle=arc;" parent="1" source="51" target="69" edge="1">
                    <mxGeometry relative="1" as="geometry"/>
                </mxCell>
                <mxCell id="71" value="has [1..*]" style="edgeLabel;html=1;align=center;verticalAlign=middle;resizable=0;points=[];" parent="70" vertex="1" connectable="0">
                    <mxGeometry x="-0.1569" y="1" relative="1" as="geometry">
                        <mxPoint x="12" y="1" as="offset"/>
                    </mxGeometry>
                </mxCell>
                <mxCell id="72" style="edgeStyle=orthogonalEdgeStyle;html=1;startArrow=none;startFill=0;endArrow=block;endFill=1;dashed=1;entryX=0.75;entryY=0.1;entryDx=0;entryDy=0;entryPerimeter=0;exitX=0;exitY=0.75;exitDx=0;exitDy=0;" parent="1" source="51" target="2" edge="1">
                    <mxGeometry relative="1" as="geometry">
                        <mxPoint x="60" y="-410" as="targetPoint"/>
                        <Array as="points">
                            <mxPoint x="354" y="-464"/>
                        </Array>
                        <mxPoint x="290" y="-490" as="sourcePoint"/>
                    </mxGeometry>
                </mxCell>
                <mxCell id="77" value="is a" style="edgeLabel;html=1;align=center;verticalAlign=middle;resizable=0;points=[];" parent="72" vertex="1" connectable="0">
                    <mxGeometry x="-0.1053" y="-1" relative="1" as="geometry">
                        <mxPoint as="offset"/>
                    </mxGeometry>
                </mxCell>
                <mxCell id="51" value="Orchestrator&lt;br&gt;&lt;i&gt;&lt;font style=&quot;font-size: 10px&quot; color=&quot;#808080&quot;&gt;Automated interaction with the network&lt;/font&gt;&lt;/i&gt;" style="rounded=1;whiteSpace=wrap;html=1;fillColor=default;" parent="1" vertex="1">
                    <mxGeometry x="345" y="-494" width="130" height="44" as="geometry"/>
                </mxCell>
                <mxCell id="54" style="edgeStyle=orthogonalEdgeStyle;html=1;exitX=0;exitY=0.5;exitDx=0;exitDy=0;entryX=1;entryY=0.75;entryDx=0;entryDy=0;dashed=1;startArrow=none;startFill=0;endArrow=block;endFill=1;" parent="1" source="52" target="59" edge="1">
                    <mxGeometry relative="1" as="geometry"/>
                </mxCell>
                <mxCell id="55" value="is a" style="edgeLabel;html=1;align=center;verticalAlign=middle;resizable=0;points=[];" parent="54" vertex="1" connectable="0">
                    <mxGeometry x="-0.4533" y="1" relative="1" as="geometry">
                        <mxPoint x="-25" y="-1" as="offset"/>
                    </mxGeometry>
                </mxCell>
                <mxCell id="0azwvVGk7GcfsYFis9ry-85" style="edgeStyle=orthogonalEdgeStyle;jumpStyle=arc;html=1;exitX=0.75;exitY=1;exitDx=0;exitDy=0;entryX=1;entryY=0.75;entryDx=0;entryDy=0;" edge="1" parent="1" source="52" target="8">
                    <mxGeometry relative="1" as="geometry"/>
                </mxCell>
                <mxCell id="0azwvVGk7GcfsYFis9ry-86" value="reads" style="edgeLabel;html=1;align=center;verticalAlign=middle;resizable=0;points=[];" connectable="0" vertex="1" parent="0azwvVGk7GcfsYFis9ry-85">
                    <mxGeometry x="0.1425" y="-1" relative="1" as="geometry">
                        <mxPoint y="13" as="offset"/>
                    </mxGeometry>
                </mxCell>
                <mxCell id="52" value="Collector&lt;br&gt;&lt;font style=&quot;font-size: 10px&quot; color=&quot;#808080&quot;&gt;&lt;i&gt;Browsing event logs and gathering information&lt;/i&gt;&lt;/font&gt;" style="rounded=1;whiteSpace=wrap;html=1;fillColor=default;" parent="1" vertex="1">
                    <mxGeometry x="560" y="-365" width="130" height="55" as="geometry"/>
                </mxCell>
                <mxCell id="82" style="edgeStyle=orthogonalEdgeStyle;html=1;exitX=0;exitY=0.5;exitDx=0;exitDy=0;endArrow=block;endFill=1;dashed=1;" parent="1" source="59" target="80" edge="1">
                    <mxGeometry relative="1" as="geometry"/>
                </mxCell>
                <mxCell id="83" value="sends" style="edgeLabel;html=1;align=center;verticalAlign=middle;resizable=0;points=[];" parent="82" vertex="1" connectable="0">
                    <mxGeometry x="-0.264" y="-2" relative="1" as="geometry">
                        <mxPoint as="offset"/>
                    </mxGeometry>
                </mxCell>
                <mxCell id="59" value="Client Node&lt;br&gt;&lt;i&gt;&lt;font style=&quot;font-size: 10px&quot; color=&quot;#808080&quot;&gt;Interacts with Artefact Servers over HTTP&lt;/font&gt;&lt;/i&gt;" style="rounded=1;whiteSpace=wrap;html=1;fillColor=none;" parent="1" vertex="1">
                    <mxGeometry x="350" y="-400" width="120" height="50" as="geometry"/>
                </mxCell>
                <mxCell id="61" style="edgeStyle=orthogonalEdgeStyle;html=1;exitX=0;exitY=0.5;exitDx=0;exitDy=0;entryX=1;entryY=0.25;entryDx=0;entryDy=0;dashed=1;startArrow=none;startFill=0;endArrow=block;endFill=1;" parent="1" source="60" target="59" edge="1">
                    <mxGeometry relative="1" as="geometry"/>
                </mxCell>
                <mxCell id="62" value="is a" style="edgeLabel;html=1;align=center;verticalAlign=middle;resizable=0;points=[];" parent="61" vertex="1" connectable="0">
                    <mxGeometry x="0.0511" y="1" relative="1" as="geometry">
                        <mxPoint as="offset"/>
                    </mxGeometry>
                </mxCell>
                <mxCell id="60" value="Dashboard&lt;br&gt;&lt;i&gt;&lt;font style=&quot;font-size: 10px&quot; color=&quot;#808080&quot;&gt;Manual interaction with the network&lt;/font&gt;&lt;/i&gt;" style="rounded=1;whiteSpace=wrap;html=1;fillColor=default;" parent="1" vertex="1">
                    <mxGeometry x="560" y="-420" width="130" height="45" as="geometry"/>
                </mxCell>
                <mxCell id="79" value="filters" style="edgeStyle=none;html=1;exitX=0.5;exitY=1;exitDx=0;exitDy=0;entryX=0.5;entryY=0;entryDx=0;entryDy=0;endArrow=block;endFill=1;dashed=1;" parent="1" source="63" target="7" edge="1">
                    <mxGeometry relative="1" as="geometry"/>
                </mxCell>
                <mxCell id="63" value="Selector&lt;br&gt;&lt;i&gt;&lt;font style=&quot;font-size: 10px&quot; color=&quot;#808080&quot;&gt;Selection criteria&lt;/font&gt;&lt;/i&gt;" style="rounded=1;whiteSpace=wrap;html=1;fillColor=none;" parent="1" vertex="1">
                    <mxGeometry x="480" y="-106" width="120" height="30" as="geometry"/>
                </mxCell>
                <mxCell id="69" value="Rulebook&lt;br&gt;&lt;i&gt;&lt;font style=&quot;font-size: 10px&quot; color=&quot;#808080&quot;&gt;Machine-readable business processes&lt;/font&gt;&lt;/i&gt;" style="rounded=1;whiteSpace=wrap;html=1;fillColor=none;" parent="1" vertex="1">
                    <mxGeometry x="560" y="-494" width="130" height="48.5" as="geometry"/>
                </mxCell>
                <mxCell id="84" style="edgeStyle=orthogonalEdgeStyle;html=1;exitX=0.5;exitY=1;exitDx=0;exitDy=0;entryX=0.5;entryY=0;entryDx=0;entryDy=0;dashed=1;endArrow=none;endFill=0;startArrow=block;startFill=1;" parent="1" source="80" target="6" edge="1">
                    <mxGeometry relative="1" as="geometry"/>
                </mxCell>
                <mxCell id="85" value="receives" style="edgeLabel;html=1;align=center;verticalAlign=middle;resizable=0;points=[];" parent="84" vertex="1" connectable="0">
                    <mxGeometry x="-0.1111" y="2" relative="1" as="geometry">
                        <mxPoint as="offset"/>
                    </mxGeometry>
                </mxCell>
            </root>
        </mxGraphModel>
    </diagram>
    <diagram id="hb9cnkl-kBIJ_Bdly4T7" name="Solid">
        <mxGraphModel dx="599" dy="1567" grid="1" gridSize="10" guides="1" tooltips="1" connect="1" arrows="1" fold="1" page="1" pageScale="1" pageWidth="827" pageHeight="1169" math="0" shadow="0">
            <root>
                <mxCell id="MsBOOhmxAzLeXIIjvKM7-0"/>
                <mxCell id="MsBOOhmxAzLeXIIjvKM7-1" parent="MsBOOhmxAzLeXIIjvKM7-0"/>
                <mxCell id="xtTBmF2CFz2ZrrwQYu2C-1" value="Node" style="rounded=1;whiteSpace=wrap;html=1;dashed=1;verticalAlign=top;" vertex="1" parent="MsBOOhmxAzLeXIIjvKM7-1">
                    <mxGeometry x="990" y="-600" width="170" height="290" as="geometry"/>
                </mxCell>
                <mxCell id="cpewgBCy2vF4xd8N5JpA-6" value="Node" style="rounded=1;whiteSpace=wrap;html=1;dashed=1;verticalAlign=top;" parent="MsBOOhmxAzLeXIIjvKM7-1" vertex="1">
                    <mxGeometry x="520" y="-600" width="170" height="290" as="geometry"/>
                </mxCell>
                <mxCell id="d-yg8RR15cxyjwiWsaXM-2" style="edgeStyle=orthogonalEdgeStyle;jumpStyle=arc;html=1;exitX=0;exitY=0.75;exitDx=0;exitDy=0;entryX=0;entryY=0.75;entryDx=0;entryDy=0;startArrow=none;startFill=0;endArrow=classic;endFill=1;" parent="MsBOOhmxAzLeXIIjvKM7-1" source="cpewgBCy2vF4xd8N5JpA-4" target="wOc6UkeEuvL9OAG0goW2-3" edge="1">
                    <mxGeometry relative="1" as="geometry">
                        <Array as="points">
                            <mxPoint x="480" y="-479"/>
                            <mxPoint x="480" y="-680"/>
                        </Array>
                    </mxGeometry>
                </mxCell>
                <mxCell id="SSgkpLSeqyj1iyeoYpqQ-0" style="edgeStyle=orthogonalEdgeStyle;jumpStyle=arc;html=1;exitX=1;exitY=0.25;exitDx=0;exitDy=0;entryX=0;entryY=0.5;entryDx=0;entryDy=0;startArrow=none;startFill=0;endArrow=classic;endFill=1;" parent="MsBOOhmxAzLeXIIjvKM7-1" source="cpewgBCy2vF4xd8N5JpA-4" target="PopRK5T3yfZBmKpweD8M-0" edge="1">
                    <mxGeometry relative="1" as="geometry">
                        <Array as="points">
                            <mxPoint x="680" y="-502"/>
                            <mxPoint x="680" y="-283"/>
                        </Array>
                    </mxGeometry>
                </mxCell>
                <mxCell id="PopRK5T3yfZBmKpweD8M-9" style="jumpStyle=arc;html=1;exitX=1;exitY=0.5;exitDx=0;exitDy=0;entryX=0;entryY=0.5;entryDx=0;entryDy=0;endArrow=block;endFill=1;" parent="MsBOOhmxAzLeXIIjvKM7-1" source="cpewgBCy2vF4xd8N5JpA-0" target="PopRK5T3yfZBmKpweD8M-6" edge="1">
                    <mxGeometry relative="1" as="geometry"/>
                </mxCell>
                <mxCell id="PopRK5T3yfZBmKpweD8M-12" value="serves [0..*]" style="edgeLabel;html=1;align=center;verticalAlign=middle;resizable=0;points=[];" parent="PopRK5T3yfZBmKpweD8M-9" vertex="1" connectable="0">
                    <mxGeometry x="0.1791" y="2" relative="1" as="geometry">
                        <mxPoint as="offset"/>
                    </mxGeometry>
                </mxCell>
                <mxCell id="PopRK5T3yfZBmKpweD8M-10" style="edgeStyle=none;jumpStyle=arc;html=1;exitX=1;exitY=0.5;exitDx=0;exitDy=0;entryX=0;entryY=0.5;entryDx=0;entryDy=0;endArrow=block;endFill=1;" parent="MsBOOhmxAzLeXIIjvKM7-1" source="cpewgBCy2vF4xd8N5JpA-0" target="PopRK5T3yfZBmKpweD8M-3" edge="1">
                    <mxGeometry relative="1" as="geometry"/>
                </mxCell>
                <mxCell id="QXr_WgSV7Kk8Xh60qsAl-0" value="serves [0..*]" style="edgeLabel;html=1;align=center;verticalAlign=middle;resizable=0;points=[];" parent="PopRK5T3yfZBmKpweD8M-10" vertex="1" connectable="0">
                    <mxGeometry x="0.0556" y="1" relative="1" as="geometry">
                        <mxPoint as="offset"/>
                    </mxGeometry>
                </mxCell>
                <mxCell id="PopRK5T3yfZBmKpweD8M-11" style="edgeStyle=none;jumpStyle=arc;html=1;exitX=1;exitY=0.5;exitDx=0;exitDy=0;entryX=0;entryY=0.25;entryDx=0;entryDy=0;endArrow=block;endFill=1;" parent="MsBOOhmxAzLeXIIjvKM7-1" source="cpewgBCy2vF4xd8N5JpA-0" target="PopRK5T3yfZBmKpweD8M-0" edge="1">
                    <mxGeometry relative="1" as="geometry"/>
                </mxCell>
                <mxCell id="QXr_WgSV7Kk8Xh60qsAl-1" value="serves [0..*]" style="edgeLabel;html=1;align=center;verticalAlign=middle;resizable=0;points=[];" parent="PopRK5T3yfZBmKpweD8M-11" vertex="1" connectable="0">
                    <mxGeometry x="-0.096" relative="1" as="geometry">
                        <mxPoint as="offset"/>
                    </mxGeometry>
                </mxCell>
                <mxCell id="wOc6UkeEuvL9OAG0goW2-4" style="edgeStyle=orthogonalEdgeStyle;jumpStyle=arc;html=1;exitX=0.75;exitY=0;exitDx=0;exitDy=0;entryX=0;entryY=1;entryDx=0;entryDy=0;entryPerimeter=0;startArrow=none;startFill=0;endArrow=block;endFill=1;" parent="MsBOOhmxAzLeXIIjvKM7-1" source="cpewgBCy2vF4xd8N5JpA-0" target="wOc6UkeEuvL9OAG0goW2-2" edge="1">
                    <mxGeometry relative="1" as="geometry">
                        <Array as="points">
                            <mxPoint x="638" y="-663"/>
                        </Array>
                    </mxGeometry>
                </mxCell>
                <mxCell id="wOc6UkeEuvL9OAG0goW2-5" value="owner [1..1]" style="edgeLabel;html=1;align=center;verticalAlign=middle;resizable=0;points=[];" parent="wOc6UkeEuvL9OAG0goW2-4" vertex="1" connectable="0">
                    <mxGeometry x="0.4178" y="2" relative="1" as="geometry">
                        <mxPoint x="-32" y="22" as="offset"/>
                    </mxGeometry>
                </mxCell>
                <mxCell id="cpewgBCy2vF4xd8N5JpA-0" value="&lt;div&gt;Data Pod&lt;br&gt;&lt;/div&gt;&lt;div&gt;&lt;i&gt;&lt;font style=&quot;font-size: 10px&quot; color=&quot;#808080&quot;&gt;Solid compliant storage&lt;/font&gt;&lt;/i&gt;&lt;/div&gt;" style="rounded=1;whiteSpace=wrap;html=1;strokeWidth=1;strokeColor=default;align=center;verticalAlign=middle;spacingRight=10;fillColor=none;" parent="MsBOOhmxAzLeXIIjvKM7-1" vertex="1">
                    <mxGeometry x="540" y="-566.25" width="130" height="46.25" as="geometry"/>
                </mxCell>
                <mxCell id="cpewgBCy2vF4xd8N5JpA-1" style="edgeStyle=orthogonalEdgeStyle;html=1;exitX=0.5;exitY=1;exitDx=0;exitDy=0;entryX=0.5;entryY=0;entryDx=0;entryDy=0;startArrow=none;startFill=0;endArrow=classic;endFill=1;jumpStyle=arc;" parent="MsBOOhmxAzLeXIIjvKM7-1" source="cpewgBCy2vF4xd8N5JpA-3" target="cpewgBCy2vF4xd8N5JpA-5" edge="1">
                    <mxGeometry relative="1" as="geometry"/>
                </mxCell>
                <mxCell id="cpewgBCy2vF4xd8N5JpA-2" value="has [1..*]" style="edgeLabel;html=1;align=center;verticalAlign=middle;resizable=0;points=[];" parent="cpewgBCy2vF4xd8N5JpA-1" vertex="1" connectable="0">
                    <mxGeometry x="-0.1569" y="1" relative="1" as="geometry">
                        <mxPoint x="-3" y="1" as="offset"/>
                    </mxGeometry>
                </mxCell>
                <mxCell id="oLR3gNynPXorNK1sP1XY-9" style="edgeStyle=orthogonalEdgeStyle;jumpStyle=arc;html=1;exitX=1;exitY=0.75;exitDx=0;exitDy=0;entryX=0;entryY=0.5;entryDx=0;entryDy=0;endArrow=classic;endFill=1;" parent="MsBOOhmxAzLeXIIjvKM7-1" source="cpewgBCy2vF4xd8N5JpA-3" target="PopRK5T3yfZBmKpweD8M-0" edge="1">
                    <mxGeometry relative="1" as="geometry">
                        <Array as="points">
                            <mxPoint x="680" y="-427"/>
                            <mxPoint x="680" y="-283"/>
                        </Array>
                    </mxGeometry>
                </mxCell>
                <mxCell id="oLR3gNynPXorNK1sP1XY-10" value="reads" style="edgeLabel;html=1;align=center;verticalAlign=middle;resizable=0;points=[];" parent="oLR3gNynPXorNK1sP1XY-9" vertex="1" connectable="0">
                    <mxGeometry x="-0.1006" y="4" relative="1" as="geometry">
                        <mxPoint x="26" y="44" as="offset"/>
                    </mxGeometry>
                </mxCell>
                <mxCell id="d-yg8RR15cxyjwiWsaXM-1" style="edgeStyle=orthogonalEdgeStyle;jumpStyle=arc;html=1;exitX=0;exitY=0.25;exitDx=0;exitDy=0;startArrow=none;startFill=0;endArrow=block;endFill=1;entryX=0;entryY=0.75;entryDx=0;entryDy=0;" parent="MsBOOhmxAzLeXIIjvKM7-1" source="cpewgBCy2vF4xd8N5JpA-3" target="wOc6UkeEuvL9OAG0goW2-3" edge="1">
                    <mxGeometry relative="1" as="geometry">
                        <mxPoint x="450" y="-650" as="targetPoint"/>
                        <Array as="points">
                            <mxPoint x="480" y="-449"/>
                            <mxPoint x="480" y="-680"/>
                        </Array>
                    </mxGeometry>
                </mxCell>
                <mxCell id="d-yg8RR15cxyjwiWsaXM-3" value="on behalf of" style="edgeLabel;html=1;align=center;verticalAlign=middle;resizable=0;points=[];" parent="d-yg8RR15cxyjwiWsaXM-1" vertex="1" connectable="0">
                    <mxGeometry x="0.4013" relative="1" as="geometry">
                        <mxPoint as="offset"/>
                    </mxGeometry>
                </mxCell>
                <mxCell id="cpewgBCy2vF4xd8N5JpA-3" value="Orchestrator&lt;br&gt;&lt;i&gt;&lt;font style=&quot;font-size: 10px&quot; color=&quot;#808080&quot;&gt;Automated interaction with the network&lt;/font&gt;&lt;/i&gt;" style="rounded=1;whiteSpace=wrap;html=1;fillColor=default;" parent="MsBOOhmxAzLeXIIjvKM7-1" vertex="1">
                    <mxGeometry x="540" y="-460.25" width="130" height="44" as="geometry"/>
                </mxCell>
                <mxCell id="oLR3gNynPXorNK1sP1XY-11" style="edgeStyle=orthogonalEdgeStyle;jumpStyle=arc;html=1;exitX=0;exitY=0.5;exitDx=0;exitDy=0;endArrow=classic;endFill=1;entryX=1;entryY=0.5;entryDx=0;entryDy=0;" parent="MsBOOhmxAzLeXIIjvKM7-1" source="cpewgBCy2vF4xd8N5JpA-4" target="oLR3gNynPXorNK1sP1XY-0" edge="1">
                    <mxGeometry relative="1" as="geometry">
                        <mxPoint x="420" y="-470" as="targetPoint"/>
                        <Array as="points">
                            <mxPoint x="460" y="-491"/>
                            <mxPoint x="460" y="-436"/>
                        </Array>
                    </mxGeometry>
                </mxCell>
                <mxCell id="SSgkpLSeqyj1iyeoYpqQ-2" value="manages" style="edgeStyle=orthogonalEdgeStyle;jumpStyle=arc;html=1;exitX=0;exitY=0.25;exitDx=0;exitDy=0;entryX=0;entryY=0.5;entryDx=0;entryDy=0;startArrow=none;startFill=0;endArrow=block;endFill=1;" parent="MsBOOhmxAzLeXIIjvKM7-1" source="cpewgBCy2vF4xd8N5JpA-4" target="cpewgBCy2vF4xd8N5JpA-0" edge="1">
                    <mxGeometry relative="1" as="geometry">
                        <Array as="points">
                            <mxPoint x="510" y="-502"/>
                            <mxPoint x="510" y="-543"/>
                        </Array>
                    </mxGeometry>
                </mxCell>
                <mxCell id="cpewgBCy2vF4xd8N5JpA-4" value="Dashboard&lt;br&gt;&lt;i&gt;&lt;font style=&quot;font-size: 10px&quot; color=&quot;#808080&quot;&gt;Manual interaction with the network&lt;/font&gt;&lt;/i&gt;" style="rounded=1;whiteSpace=wrap;html=1;fillColor=default;" parent="MsBOOhmxAzLeXIIjvKM7-1" vertex="1">
                    <mxGeometry x="540" y="-513.75" width="130" height="46.25" as="geometry"/>
                </mxCell>
                <mxCell id="cpewgBCy2vF4xd8N5JpA-5" value="Rulebook&lt;br&gt;&lt;i&gt;&lt;font style=&quot;font-size: 10px&quot; color=&quot;#808080&quot;&gt;Machine-readable business processes&lt;/font&gt;&lt;/i&gt;" style="rounded=1;whiteSpace=wrap;html=1;fillColor=none;" parent="MsBOOhmxAzLeXIIjvKM7-1" vertex="1">
                    <mxGeometry x="540" y="-370" width="130" height="48.5" as="geometry"/>
                </mxCell>
                <mxCell id="PopRK5T3yfZBmKpweD8M-0" value="inbox&lt;br&gt;&lt;i&gt;&lt;font style=&quot;font-size: 10px&quot; color=&quot;#808080&quot;&gt;Delivered notifications&lt;/font&gt;&lt;/i&gt;" style="rounded=1;whiteSpace=wrap;html=1;fillColor=none;" parent="MsBOOhmxAzLeXIIjvKM7-1" vertex="1">
                    <mxGeometry x="770" y="-306.25" width="120" height="46.25" as="geometry"/>
                </mxCell>
                <mxCell id="PopRK5T3yfZBmKpweD8M-1" style="edgeStyle=orthogonalEdgeStyle;html=1;exitX=0.5;exitY=1;exitDx=0;exitDy=0;entryX=0.5;entryY=0;entryDx=0;entryDy=0;startArrow=none;startFill=0;endArrow=oval;endFill=0;" parent="MsBOOhmxAzLeXIIjvKM7-1" source="PopRK5T3yfZBmKpweD8M-3" target="PopRK5T3yfZBmKpweD8M-8" edge="1">
                    <mxGeometry relative="1" as="geometry"/>
                </mxCell>
                <mxCell id="PopRK5T3yfZBmKpweD8M-2" value="has [1..1]" style="edgeLabel;html=1;align=center;verticalAlign=middle;resizable=0;points=[];" parent="PopRK5T3yfZBmKpweD8M-1" vertex="1" connectable="0">
                    <mxGeometry x="-0.0549" y="-1" relative="1" as="geometry">
                        <mxPoint as="offset"/>
                    </mxGeometry>
                </mxCell>
                <mxCell id="PopRK5T3yfZBmKpweD8M-3" value="Lifecycle Event Log&lt;br&gt;&lt;i&gt;&lt;font style=&quot;font-size: 10px&quot; color=&quot;#808080&quot;&gt;List of notifications representing an artefact's lifecycle&lt;/font&gt;&lt;/i&gt;" style="rounded=1;whiteSpace=wrap;html=1;fillColor=none;" parent="MsBOOhmxAzLeXIIjvKM7-1" vertex="1">
                    <mxGeometry x="770" y="-486.25" width="120" height="60" as="geometry"/>
                </mxCell>
                <mxCell id="PopRK5T3yfZBmKpweD8M-4" style="edgeStyle=orthogonalEdgeStyle;html=1;exitX=0.5;exitY=1;exitDx=0;exitDy=0;entryX=0.5;entryY=0;entryDx=0;entryDy=0;endArrow=block;endFill=1;" parent="MsBOOhmxAzLeXIIjvKM7-1" source="PopRK5T3yfZBmKpweD8M-6" target="PopRK5T3yfZBmKpweD8M-3" edge="1">
                    <mxGeometry relative="1" as="geometry"/>
                </mxCell>
                <mxCell id="PopRK5T3yfZBmKpweD8M-5" value="ex:eventlog [0..*]" style="edgeLabel;html=1;align=center;verticalAlign=middle;resizable=0;points=[];" parent="PopRK5T3yfZBmKpweD8M-4" vertex="1" connectable="0">
                    <mxGeometry x="-0.1515" relative="1" as="geometry">
                        <mxPoint as="offset"/>
                    </mxGeometry>
                </mxCell>
                <mxCell id="PopRK5T3yfZBmKpweD8M-6" value="Artefact&lt;br&gt;&amp;nbsp;&lt;i&gt;&lt;font style=&quot;font-size: 10px&quot; color=&quot;#808080&quot;&gt;What every interaction &lt;br&gt;is about&lt;/font&gt;&lt;/i&gt;" style="rounded=1;whiteSpace=wrap;html=1;fillColor=none;strokeColor=#000000;strokeWidth=1;" parent="MsBOOhmxAzLeXIIjvKM7-1" vertex="1">
                    <mxGeometry x="770" y="-566.25" width="120" height="52.5" as="geometry"/>
                </mxCell>
                <mxCell id="PopRK5T3yfZBmKpweD8M-7" value="filters" style="edgeStyle=none;html=1;exitX=0.5;exitY=1;exitDx=0;exitDy=0;entryX=0.5;entryY=0;entryDx=0;entryDy=0;endArrow=block;endFill=1;dashed=1;" parent="MsBOOhmxAzLeXIIjvKM7-1" source="PopRK5T3yfZBmKpweD8M-8" target="PopRK5T3yfZBmKpweD8M-0" edge="1">
                    <mxGeometry relative="1" as="geometry"/>
                </mxCell>
                <mxCell id="PopRK5T3yfZBmKpweD8M-8" value="Selector&lt;br&gt;&lt;i&gt;&lt;font style=&quot;font-size: 10px&quot; color=&quot;#808080&quot;&gt;Selection criteria&lt;/font&gt;&lt;/i&gt;" style="rounded=1;whiteSpace=wrap;html=1;fillColor=none;" parent="MsBOOhmxAzLeXIIjvKM7-1" vertex="1">
                    <mxGeometry x="770" y="-386.25" width="120" height="30" as="geometry"/>
                </mxCell>
                <mxCell id="oLR3gNynPXorNK1sP1XY-0" value="Notification&lt;br&gt;&lt;i&gt;&lt;font style=&quot;font-size: 10px&quot; color=&quot;#808080&quot;&gt;message delivery&lt;/font&gt;&lt;/i&gt;" style="rounded=1;whiteSpace=wrap;html=1;fillColor=#f5f5f5;verticalAlign=top;fontColor=#333333;strokeColor=#666666;" parent="MsBOOhmxAzLeXIIjvKM7-1" vertex="1">
                    <mxGeometry x="240" y="-486.25" width="150" height="100" as="geometry"/>
                </mxCell>
                <mxCell id="ULaEbB2Woz08LTiuk67K-0" style="edgeStyle=orthogonalEdgeStyle;jumpStyle=arc;html=1;exitX=0;exitY=0.25;exitDx=0;exitDy=0;entryX=0;entryY=0.5;entryDx=0;entryDy=0;startArrow=none;startFill=0;endArrow=block;endFill=1;" parent="MsBOOhmxAzLeXIIjvKM7-1" source="oLR3gNynPXorNK1sP1XY-2" target="wOc6UkeEuvL9OAG0goW2-3" edge="1">
                    <mxGeometry relative="1" as="geometry"/>
                </mxCell>
                <mxCell id="ULaEbB2Woz08LTiuk67K-1" value="as:actor /&lt;br&gt;as:origin / as:target [1..1]" style="edgeLabel;html=1;align=center;verticalAlign=middle;resizable=0;points=[];" parent="ULaEbB2Woz08LTiuk67K-0" vertex="1" connectable="0">
                    <mxGeometry x="0.4205" y="3" relative="1" as="geometry">
                        <mxPoint as="offset"/>
                    </mxGeometry>
                </mxCell>
                <mxCell id="oLR3gNynPXorNK1sP1XY-2" value="Activity&lt;br&gt;&lt;font style=&quot;font-size: 10px&quot; color=&quot;#808080&quot;&gt;&lt;i&gt;Description of a performed action&lt;/i&gt;&lt;/font&gt;" style="rounded=1;whiteSpace=wrap;html=1;fillColor=default;" parent="MsBOOhmxAzLeXIIjvKM7-1" vertex="1">
                    <mxGeometry x="260" y="-446.25" width="110" height="50" as="geometry"/>
                </mxCell>
                <mxCell id="oLR3gNynPXorNK1sP1XY-3" style="edgeStyle=orthogonalEdgeStyle;html=1;endArrow=block;endFill=1;exitX=0;exitY=0.5;exitDx=0;exitDy=0;entryX=1;entryY=0.5;entryDx=0;entryDy=0;" parent="MsBOOhmxAzLeXIIjvKM7-1" source="cpewgBCy2vF4xd8N5JpA-3" target="oLR3gNynPXorNK1sP1XY-0" edge="1">
                    <mxGeometry relative="1" as="geometry">
                        <mxPoint x="331.25" y="-469" as="sourcePoint"/>
                        <Array as="points">
                            <mxPoint x="540" y="-436"/>
                        </Array>
                        <mxPoint x="250" y="-436" as="targetPoint"/>
                    </mxGeometry>
                </mxCell>
                <mxCell id="oLR3gNynPXorNK1sP1XY-4" value="sends [0..*]" style="edgeLabel;html=1;align=center;verticalAlign=middle;resizable=0;points=[];" parent="oLR3gNynPXorNK1sP1XY-3" vertex="1" connectable="0">
                    <mxGeometry x="-0.264" y="-2" relative="1" as="geometry">
                        <mxPoint x="-46" as="offset"/>
                    </mxGeometry>
                </mxCell>
                <mxCell id="caQoFhIjbKJVH2Jlx6n3-2" style="edgeStyle=orthogonalEdgeStyle;jumpStyle=arc;html=1;exitX=0;exitY=0.75;exitDx=0;exitDy=0;entryX=0.5;entryY=1;entryDx=0;entryDy=0;startArrow=none;startFill=0;endArrow=block;endFill=1;" parent="MsBOOhmxAzLeXIIjvKM7-1" source="PopRK5T3yfZBmKpweD8M-0" target="oLR3gNynPXorNK1sP1XY-2" edge="1">
                    <mxGeometry relative="1" as="geometry"/>
                </mxCell>
                <mxCell id="caQoFhIjbKJVH2Jlx6n3-3" value="ldp:contains [0..*]" style="edgeLabel;html=1;align=center;verticalAlign=middle;resizable=0;points=[];" parent="caQoFhIjbKJVH2Jlx6n3-2" vertex="1" connectable="0">
                    <mxGeometry x="0.3984" relative="1" as="geometry">
                        <mxPoint as="offset"/>
                    </mxGeometry>
                </mxCell>
                <mxCell id="wOc6UkeEuvL9OAG0goW2-0" style="edgeStyle=orthogonalEdgeStyle;html=1;exitX=0.5;exitY=0.5;exitDx=0;exitDy=0;exitPerimeter=0;entryX=1;entryY=0.5;entryDx=0;entryDy=0;startArrow=none;startFill=0;endArrow=block;endFill=1;" parent="MsBOOhmxAzLeXIIjvKM7-1" source="wOc6UkeEuvL9OAG0goW2-2" target="wOc6UkeEuvL9OAG0goW2-3" edge="1">
                    <mxGeometry relative="1" as="geometry"/>
                </mxCell>
                <mxCell id="wOc6UkeEuvL9OAG0goW2-1" value="has [1..1]" style="edgeLabel;html=1;align=center;verticalAlign=middle;resizable=0;points=[];" parent="wOc6UkeEuvL9OAG0goW2-0" vertex="1" connectable="0">
                    <mxGeometry x="0.0444" y="-2" relative="1" as="geometry">
                        <mxPoint x="-2" y="-13" as="offset"/>
                    </mxGeometry>
                </mxCell>
                <mxCell id="wOc6UkeEuvL9OAG0goW2-2" value="Data Pod Owner (Agent)&lt;br&gt;&lt;i style=&quot;color: rgb(128 , 128 , 128) ; font-size: 10px ; text-align: left&quot;&gt;Person, social entity&lt;br&gt;that is considered to&lt;br&gt;have the rights and&lt;br&gt;responsibilities of a&lt;br&gt;data storage.&lt;/i&gt;" style="shape=umlActor;verticalLabelPosition=middle;verticalAlign=middle;html=1;outlineConnect=0;labelPosition=right;align=left;" parent="MsBOOhmxAzLeXIIjvKM7-1" vertex="1">
                    <mxGeometry x="720" y="-723" width="30" height="60" as="geometry"/>
                </mxCell>
                <mxCell id="wOc6UkeEuvL9OAG0goW2-3" value="WebID&lt;br&gt;&lt;i&gt;&lt;font style=&quot;font-size: 10px&quot; color=&quot;#808080&quot;&gt;Agent identifcation and profile information&lt;/font&gt;&lt;/i&gt;" style="rounded=1;whiteSpace=wrap;html=1;fillColor=none;" parent="MsBOOhmxAzLeXIIjvKM7-1" vertex="1">
                    <mxGeometry x="520" y="-718" width="120" height="50" as="geometry"/>
                </mxCell>
                <mxCell id="xtTBmF2CFz2ZrrwQYu2C-4" style="edgeStyle=none;jumpStyle=arc;html=1;exitX=0;exitY=0.5;exitDx=0;exitDy=0;entryX=1;entryY=0.5;entryDx=0;entryDy=0;startArrow=none;startFill=0;endArrow=block;endFill=1;" edge="1" parent="MsBOOhmxAzLeXIIjvKM7-1" source="xtTBmF2CFz2ZrrwQYu2C-0" target="PopRK5T3yfZBmKpweD8M-6">
                    <mxGeometry relative="1" as="geometry"/>
                </mxCell>
                <mxCell id="xtTBmF2CFz2ZrrwQYu2C-7" value="serves [0..*]" style="edgeLabel;html=1;align=center;verticalAlign=middle;resizable=0;points=[];" vertex="1" connectable="0" parent="xtTBmF2CFz2ZrrwQYu2C-4">
                    <mxGeometry x="0.1095" y="2" relative="1" as="geometry">
                        <mxPoint as="offset"/>
                    </mxGeometry>
                </mxCell>
                <mxCell id="xtTBmF2CFz2ZrrwQYu2C-5" style="edgeStyle=none;jumpStyle=arc;html=1;exitX=0;exitY=0.5;exitDx=0;exitDy=0;entryX=1;entryY=0.5;entryDx=0;entryDy=0;startArrow=none;startFill=0;endArrow=block;endFill=1;" edge="1" parent="MsBOOhmxAzLeXIIjvKM7-1" source="xtTBmF2CFz2ZrrwQYu2C-0" target="PopRK5T3yfZBmKpweD8M-3">
                    <mxGeometry relative="1" as="geometry"/>
                </mxCell>
                <mxCell id="xtTBmF2CFz2ZrrwQYu2C-8" value="serves [0..*]" style="edgeLabel;html=1;align=center;verticalAlign=middle;resizable=0;points=[];" vertex="1" connectable="0" parent="xtTBmF2CFz2ZrrwQYu2C-5">
                    <mxGeometry x="0.0233" y="-3" relative="1" as="geometry">
                        <mxPoint as="offset"/>
                    </mxGeometry>
                </mxCell>
                <mxCell id="xtTBmF2CFz2ZrrwQYu2C-6" style="edgeStyle=none;jumpStyle=arc;html=1;exitX=0;exitY=0.5;exitDx=0;exitDy=0;entryX=1;entryY=0.5;entryDx=0;entryDy=0;startArrow=none;startFill=0;endArrow=block;endFill=1;" edge="1" parent="MsBOOhmxAzLeXIIjvKM7-1" source="xtTBmF2CFz2ZrrwQYu2C-0" target="PopRK5T3yfZBmKpweD8M-0">
                    <mxGeometry relative="1" as="geometry"/>
                </mxCell>
                <mxCell id="xtTBmF2CFz2ZrrwQYu2C-9" value="serves [0..*]" style="edgeLabel;html=1;align=center;verticalAlign=middle;resizable=0;points=[];" vertex="1" connectable="0" parent="xtTBmF2CFz2ZrrwQYu2C-6">
                    <mxGeometry x="-0.2105" y="3" relative="1" as="geometry">
                        <mxPoint as="offset"/>
                    </mxGeometry>
                </mxCell>
                <mxCell id="XEt1Pjb22uBBBdW1Sub7-1" style="edgeStyle=none;jumpStyle=arc;html=1;exitX=0.75;exitY=0;exitDx=0;exitDy=0;entryX=1;entryY=1;entryDx=0;entryDy=0;entryPerimeter=0;startArrow=none;startFill=0;endArrow=block;endFill=1;spacingTop=0;" edge="1" parent="MsBOOhmxAzLeXIIjvKM7-1" source="xtTBmF2CFz2ZrrwQYu2C-0" target="XEt1Pjb22uBBBdW1Sub7-0">
                    <mxGeometry relative="1" as="geometry"/>
                </mxCell>
                <mxCell id="XEt1Pjb22uBBBdW1Sub7-3" value="owner [1..1]" style="edgeLabel;html=1;align=center;verticalAlign=middle;resizable=0;points=[];" vertex="1" connectable="0" parent="XEt1Pjb22uBBBdW1Sub7-1">
                    <mxGeometry x="0.2102" y="2" relative="1" as="geometry">
                        <mxPoint as="offset"/>
                    </mxGeometry>
                </mxCell>
                <mxCell id="xtTBmF2CFz2ZrrwQYu2C-0" value="&lt;div&gt;Service Hub&lt;br&gt;&lt;/div&gt;&lt;div style=&quot;font-size: 10px&quot;&gt;&lt;font color=&quot;#808080&quot;&gt;&lt;i&gt;Value-added services on artefacts; minimal implementation requirements&lt;/i&gt;&lt;/font&gt;&lt;/div&gt;" style="rounded=1;whiteSpace=wrap;html=1;strokeWidth=1;strokeColor=default;align=center;verticalAlign=middle;spacingRight=10;fillColor=none;" vertex="1" parent="MsBOOhmxAzLeXIIjvKM7-1">
                    <mxGeometry x="1000" y="-570" width="150" height="60" as="geometry"/>
                </mxCell>
                <mxCell id="XEt1Pjb22uBBBdW1Sub7-5" style="edgeStyle=orthogonalEdgeStyle;jumpStyle=arc;html=1;exitX=0.5;exitY=0;exitDx=0;exitDy=0;exitPerimeter=0;entryX=0.5;entryY=0;entryDx=0;entryDy=0;startArrow=none;startFill=0;endArrow=block;endFill=1;" edge="1" parent="MsBOOhmxAzLeXIIjvKM7-1" source="XEt1Pjb22uBBBdW1Sub7-0" target="wOc6UkeEuvL9OAG0goW2-3">
                    <mxGeometry relative="1" as="geometry">
                        <Array as="points">
                            <mxPoint x="1099" y="-760"/>
                            <mxPoint x="580" y="-760"/>
                        </Array>
                    </mxGeometry>
                </mxCell>
                <mxCell id="XEt1Pjb22uBBBdW1Sub7-6" value="has [1..1]" style="edgeLabel;html=1;align=center;verticalAlign=middle;resizable=0;points=[];" vertex="1" connectable="0" parent="XEt1Pjb22uBBBdW1Sub7-5">
                    <mxGeometry x="-0.1242" y="-3" relative="1" as="geometry">
                        <mxPoint as="offset"/>
                    </mxGeometry>
                </mxCell>
                <mxCell id="XEt1Pjb22uBBBdW1Sub7-0" value="Service Hub&lt;br&gt;Owner (Agent)&lt;br&gt;&lt;i style=&quot;font-size: 10px&quot;&gt;&lt;font color=&quot;#808080&quot;&gt;Person, social entity &lt;br&gt;maintaining the service &lt;br&gt;and the hub.&lt;/font&gt;&lt;/i&gt;" style="shape=umlActor;verticalLabelPosition=middle;verticalAlign=middle;html=1;outlineConnect=0;labelPosition=left;align=left;spacingLeft=-70;" vertex="1" parent="MsBOOhmxAzLeXIIjvKM7-1">
                    <mxGeometry x="1084" y="-728" width="30" height="60" as="geometry"/>
                </mxCell>
            </root>
        </mxGraphModel>
    </diagram>
    <diagram id="d8naxq0M7aaRvJFOPcgK" name="General">
        <mxGraphModel dx="599" dy="1567" grid="1" gridSize="10" guides="1" tooltips="1" connect="1" arrows="1" fold="1" page="1" pageScale="1" pageWidth="827" pageHeight="1169" math="0" shadow="0">
            <root>
                <mxCell id="dn2tQIHBhArKN0NqvlMN-0"/>
                <mxCell id="dn2tQIHBhArKN0NqvlMN-1" parent="dn2tQIHBhArKN0NqvlMN-0"/>
                <mxCell id="wtLxXGc1vW-XllMx9_rD-3" style="edgeStyle=none;html=1;entryX=0;entryY=0.5;entryDx=0;entryDy=0;endArrow=block;endFill=1;exitX=1;exitY=0.25;exitDx=0;exitDy=0;" parent="dn2tQIHBhArKN0NqvlMN-1" source="0nVcNducSjZmwcDjfCzQ-2" target="wtLxXGc1vW-XllMx9_rD-15" edge="1">
                    <mxGeometry relative="1" as="geometry">
                        <mxPoint x="390" y="-550" as="sourcePoint"/>
                    </mxGeometry>
                </mxCell>
                <mxCell id="wtLxXGc1vW-XllMx9_rD-4" value="serves [0..*]" style="edgeLabel;html=1;align=center;verticalAlign=middle;resizable=0;points=[];" parent="wtLxXGc1vW-XllMx9_rD-3" vertex="1" connectable="0">
                    <mxGeometry x="-0.2348" y="1" relative="1" as="geometry">
                        <mxPoint y="1" as="offset"/>
                    </mxGeometry>
                </mxCell>
                <mxCell id="wtLxXGc1vW-XllMx9_rD-5" style="edgeStyle=none;html=1;exitX=1;exitY=0.5;exitDx=0;exitDy=0;entryX=0;entryY=0.5;entryDx=0;entryDy=0;endArrow=block;endFill=1;" parent="dn2tQIHBhArKN0NqvlMN-1" source="0nVcNducSjZmwcDjfCzQ-2" target="wtLxXGc1vW-XllMx9_rD-12" edge="1">
                    <mxGeometry relative="1" as="geometry">
                        <mxPoint x="430" y="-527.5" as="sourcePoint"/>
                    </mxGeometry>
                </mxCell>
                <mxCell id="wtLxXGc1vW-XllMx9_rD-6" value="serves [0..*]" style="edgeLabel;html=1;align=center;verticalAlign=middle;resizable=0;points=[];" parent="wtLxXGc1vW-XllMx9_rD-5" vertex="1" connectable="0">
                    <mxGeometry x="0.0333" y="2" relative="1" as="geometry">
                        <mxPoint x="-6" y="2" as="offset"/>
                    </mxGeometry>
                </mxCell>
                <mxCell id="wtLxXGc1vW-XllMx9_rD-7" style="edgeStyle=none;html=1;exitX=1;exitY=0.75;exitDx=0;exitDy=0;entryX=0;entryY=0.5;entryDx=0;entryDy=0;endArrow=block;endFill=1;" parent="dn2tQIHBhArKN0NqvlMN-1" source="0nVcNducSjZmwcDjfCzQ-2" target="wtLxXGc1vW-XllMx9_rD-9" edge="1">
                    <mxGeometry relative="1" as="geometry">
                        <mxPoint x="430" y="-482.5" as="sourcePoint"/>
                    </mxGeometry>
                </mxCell>
                <mxCell id="wtLxXGc1vW-XllMx9_rD-21" value="serves [0..*]" style="edgeLabel;html=1;align=center;verticalAlign=middle;resizable=0;points=[];" parent="wtLxXGc1vW-XllMx9_rD-7" vertex="1" connectable="0">
                    <mxGeometry x="-0.4569" y="-1" relative="1" as="geometry">
                        <mxPoint as="offset"/>
                    </mxGeometry>
                </mxCell>
                <mxCell id="wtLxXGc1vW-XllMx9_rD-9" value="inbox&lt;br&gt;&lt;i&gt;&lt;font style=&quot;font-size: 10px&quot; color=&quot;#808080&quot;&gt;Delivered notifications&lt;/font&gt;&lt;/i&gt;" style="rounded=1;whiteSpace=wrap;html=1;fillColor=none;" parent="dn2tQIHBhArKN0NqvlMN-1" vertex="1">
                    <mxGeometry x="550" y="-380" width="120" height="46.25" as="geometry"/>
                </mxCell>
                <mxCell id="wtLxXGc1vW-XllMx9_rD-10" style="edgeStyle=orthogonalEdgeStyle;html=1;exitX=0.5;exitY=1;exitDx=0;exitDy=0;entryX=0.5;entryY=0;entryDx=0;entryDy=0;startArrow=none;startFill=0;endArrow=oval;endFill=0;" parent="dn2tQIHBhArKN0NqvlMN-1" source="wtLxXGc1vW-XllMx9_rD-12" target="wtLxXGc1vW-XllMx9_rD-18" edge="1">
                    <mxGeometry relative="1" as="geometry"/>
                </mxCell>
                <mxCell id="wtLxXGc1vW-XllMx9_rD-11" value="has [1..1]" style="edgeLabel;html=1;align=center;verticalAlign=middle;resizable=0;points=[];" parent="wtLxXGc1vW-XllMx9_rD-10" vertex="1" connectable="0">
                    <mxGeometry x="-0.0549" y="-1" relative="1" as="geometry">
                        <mxPoint as="offset"/>
                    </mxGeometry>
                </mxCell>
                <mxCell id="xYjoRa64ZiDdma2zscbx-1" style="edgeStyle=orthogonalEdgeStyle;jumpStyle=arc;html=1;exitX=1;exitY=0.5;exitDx=0;exitDy=0;entryX=0;entryY=0.5;entryDx=0;entryDy=0;endArrow=none;endFill=0;startArrow=block;startFill=1;" parent="dn2tQIHBhArKN0NqvlMN-1" source="wtLxXGc1vW-XllMx9_rD-12" target="xYjoRa64ZiDdma2zscbx-0" edge="1">
                    <mxGeometry relative="1" as="geometry"/>
                </mxCell>
                <mxCell id="uCXkiEtEEe-8JX8DitRB-0" value="reads [0..*]" style="edgeLabel;html=1;align=center;verticalAlign=middle;resizable=0;points=[];" parent="xYjoRa64ZiDdma2zscbx-1" vertex="1" connectable="0">
                    <mxGeometry x="-0.0381" relative="1" as="geometry">
                        <mxPoint x="6" as="offset"/>
                    </mxGeometry>
                </mxCell>
                <mxCell id="wtLxXGc1vW-XllMx9_rD-12" value="Lifecycle Event Log&lt;br&gt;&lt;i&gt;&lt;font style=&quot;font-size: 10px&quot; color=&quot;#808080&quot;&gt;List of notifications representing an artefact's lifecycle&lt;/font&gt;&lt;/i&gt;" style="rounded=1;whiteSpace=wrap;html=1;fillColor=none;" parent="dn2tQIHBhArKN0NqvlMN-1" vertex="1">
                    <mxGeometry x="550" y="-560" width="120" height="60" as="geometry"/>
                </mxCell>
                <mxCell id="0VVUDf0mVA9K163ugYhf-0" style="edgeStyle=orthogonalEdgeStyle;html=1;exitX=0.5;exitY=1;exitDx=0;exitDy=0;entryX=0.5;entryY=0;entryDx=0;entryDy=0;endArrow=block;endFill=1;" parent="dn2tQIHBhArKN0NqvlMN-1" source="wtLxXGc1vW-XllMx9_rD-15" target="wtLxXGc1vW-XllMx9_rD-12" edge="1">
                    <mxGeometry relative="1" as="geometry"/>
                </mxCell>
                <mxCell id="0VVUDf0mVA9K163ugYhf-1" value="ex:eventlog [0..*]" style="edgeLabel;html=1;align=center;verticalAlign=middle;resizable=0;points=[];" parent="0VVUDf0mVA9K163ugYhf-0" vertex="1" connectable="0">
                    <mxGeometry x="-0.1515" relative="1" as="geometry">
                        <mxPoint as="offset"/>
                    </mxGeometry>
                </mxCell>
                <mxCell id="0VVUDf0mVA9K163ugYhf-2" style="edgeStyle=orthogonalEdgeStyle;html=1;exitX=1;exitY=0.75;exitDx=0;exitDy=0;entryX=1;entryY=0.25;entryDx=0;entryDy=0;endArrow=block;endFill=1;jumpStyle=arc;" parent="dn2tQIHBhArKN0NqvlMN-1" source="wtLxXGc1vW-XllMx9_rD-15" target="wtLxXGc1vW-XllMx9_rD-9" edge="1">
                    <mxGeometry relative="1" as="geometry">
                        <Array as="points">
                            <mxPoint x="900" y="-601"/>
                            <mxPoint x="900" y="-368"/>
                        </Array>
                    </mxGeometry>
                </mxCell>
                <mxCell id="0VVUDf0mVA9K163ugYhf-3" value="ldp:inbox [1..*]" style="edgeLabel;html=1;align=center;verticalAlign=middle;resizable=0;points=[];" parent="0VVUDf0mVA9K163ugYhf-2" vertex="1" connectable="0">
                    <mxGeometry x="0.1886" y="1" relative="1" as="geometry">
                        <mxPoint y="55" as="offset"/>
                    </mxGeometry>
                </mxCell>
                <mxCell id="wtLxXGc1vW-XllMx9_rD-15" value="Artefact&lt;br&gt;&amp;nbsp;&lt;i&gt;&lt;font style=&quot;font-size: 10px&quot; color=&quot;#808080&quot;&gt;What every interaction &lt;br&gt;is about&lt;/font&gt;&lt;/i&gt;" style="rounded=1;whiteSpace=wrap;html=1;fillColor=none;strokeColor=#000000;strokeWidth=1;" parent="dn2tQIHBhArKN0NqvlMN-1" vertex="1">
                    <mxGeometry x="550" y="-640" width="120" height="52.5" as="geometry"/>
                </mxCell>
                <mxCell id="wtLxXGc1vW-XllMx9_rD-17" value="filters" style="edgeStyle=none;html=1;exitX=0.5;exitY=1;exitDx=0;exitDy=0;entryX=0.5;entryY=0;entryDx=0;entryDy=0;endArrow=block;endFill=1;dashed=1;" parent="dn2tQIHBhArKN0NqvlMN-1" source="wtLxXGc1vW-XllMx9_rD-18" target="wtLxXGc1vW-XllMx9_rD-9" edge="1">
                    <mxGeometry relative="1" as="geometry"/>
                </mxCell>
                <mxCell id="wtLxXGc1vW-XllMx9_rD-18" value="Selector&lt;br&gt;&lt;i&gt;&lt;font style=&quot;font-size: 10px&quot; color=&quot;#808080&quot;&gt;Selection criteria&lt;/font&gt;&lt;/i&gt;" style="rounded=1;whiteSpace=wrap;html=1;fillColor=none;" parent="dn2tQIHBhArKN0NqvlMN-1" vertex="1">
                    <mxGeometry x="550" y="-460" width="120" height="30" as="geometry"/>
                </mxCell>
                <mxCell id="0nVcNducSjZmwcDjfCzQ-0" value="Notification&lt;br&gt;&lt;i&gt;&lt;font style=&quot;font-size: 10px&quot; color=&quot;#808080&quot;&gt;message delivery&lt;/font&gt;&lt;/i&gt;" style="rounded=1;whiteSpace=wrap;html=1;fillColor=#f5f5f5;verticalAlign=top;fontColor=#333333;strokeColor=#666666;" parent="dn2tQIHBhArKN0NqvlMN-1" vertex="1">
                    <mxGeometry x="100" y="-575" width="150" height="100" as="geometry"/>
                </mxCell>
                <mxCell id="0nVcNducSjZmwcDjfCzQ-1" value="serves [0..*]" style="edgeLabel;html=1;align=center;verticalAlign=middle;resizable=0;points=[];" parent="dn2tQIHBhArKN0NqvlMN-1" vertex="1" connectable="0">
                    <mxGeometry x="165.31770202462917" y="-526.9010118291051" as="geometry"/>
                </mxCell>
                <mxCell id="Ed9kv9H29uNcIV5CiGPY-1" style="edgeStyle=orthogonalEdgeStyle;html=1;exitX=0.75;exitY=1;exitDx=0;exitDy=0;endArrow=block;endFill=1;entryX=0.75;entryY=0.1;entryDx=0;entryDy=0;entryPerimeter=0;" parent="dn2tQIHBhArKN0NqvlMN-1" source="0nVcNducSjZmwcDjfCzQ-2" target="jmfGbja5v9POacWkd9jE-2" edge="1">
                    <mxGeometry relative="1" as="geometry">
                        <mxPoint x="410" y="-410" as="targetPoint"/>
                        <Array as="points">
                            <mxPoint x="394" y="-450"/>
                            <mxPoint x="473" y="-450"/>
                        </Array>
                    </mxGeometry>
                </mxCell>
                <mxCell id="Ed9kv9H29uNcIV5CiGPY-2" value="owner" style="edgeLabel;html=1;align=center;verticalAlign=middle;resizable=0;points=[];" parent="Ed9kv9H29uNcIV5CiGPY-1" vertex="1" connectable="0">
                    <mxGeometry x="-0.2936" y="-1" relative="1" as="geometry">
                        <mxPoint x="26" y="2" as="offset"/>
                    </mxGeometry>
                </mxCell>
                <mxCell id="Q-KqD70pzHUsFFjPS0PP-0" style="edgeStyle=orthogonalEdgeStyle;jumpStyle=arc;html=1;exitX=0.5;exitY=1;exitDx=0;exitDy=0;entryX=0.25;entryY=0.1;entryDx=0;entryDy=0;entryPerimeter=0;startArrow=none;startFill=0;endArrow=block;endFill=1;dashed=1;" edge="1" parent="dn2tQIHBhArKN0NqvlMN-1" source="0nVcNducSjZmwcDjfCzQ-2" target="jmfGbja5v9POacWkd9jE-2">
                    <mxGeometry relative="1" as="geometry">
                        <Array as="points">
                            <mxPoint x="363" y="-430"/>
                            <mxPoint x="458" y="-430"/>
                        </Array>
                    </mxGeometry>
                </mxCell>
                <mxCell id="Q-KqD70pzHUsFFjPS0PP-1" value="is a" style="edgeLabel;html=1;align=center;verticalAlign=middle;resizable=0;points=[];" vertex="1" connectable="0" parent="Q-KqD70pzHUsFFjPS0PP-0">
                    <mxGeometry x="-0.0291" y="1" relative="1" as="geometry">
                        <mxPoint as="offset"/>
                    </mxGeometry>
                </mxCell>
                <mxCell id="0nVcNducSjZmwcDjfCzQ-2" value="Node&lt;br&gt;&lt;font color=&quot;#808080&quot;&gt;&lt;span style=&quot;font-size: 10px&quot;&gt;&lt;i&gt;Participant in a&lt;br&gt;decentralized network&lt;/i&gt;&lt;/span&gt;&lt;/font&gt;" style="rounded=1;whiteSpace=wrap;html=1;fillColor=none;" parent="dn2tQIHBhArKN0NqvlMN-1" vertex="1">
                    <mxGeometry x="300" y="-550" width="125" height="50" as="geometry"/>
                </mxCell>
                <mxCell id="jmfGbja5v9POacWkd9jE-5" style="edgeStyle=orthogonalEdgeStyle;html=1;exitX=0.5;exitY=1;exitDx=0;exitDy=0;entryX=0;entryY=0.5;entryDx=0;entryDy=0;endArrow=block;endFill=1;" parent="dn2tQIHBhArKN0NqvlMN-1" source="0nVcNducSjZmwcDjfCzQ-3" target="jmfGbja5v9POacWkd9jE-3" edge="1">
                    <mxGeometry relative="1" as="geometry"/>
                </mxCell>
                <mxCell id="Ed9kv9H29uNcIV5CiGPY-0" value="as:actor / &lt;br&gt;as:origin / as:target [1..1]" style="edgeLabel;html=1;align=center;verticalAlign=middle;resizable=0;points=[];" parent="jmfGbja5v9POacWkd9jE-5" vertex="1" connectable="0">
                    <mxGeometry x="0.2575" y="4" relative="1" as="geometry">
                        <mxPoint x="38" y="-41" as="offset"/>
                    </mxGeometry>
                </mxCell>
                <mxCell id="0nVcNducSjZmwcDjfCzQ-3" value="Activity&lt;br&gt;&lt;font style=&quot;font-size: 10px&quot; color=&quot;#808080&quot;&gt;&lt;i&gt;Description of a performed action&lt;/i&gt;&lt;/font&gt;" style="rounded=1;whiteSpace=wrap;html=1;fillColor=default;" parent="dn2tQIHBhArKN0NqvlMN-1" vertex="1">
                    <mxGeometry x="120" y="-535" width="110" height="50" as="geometry"/>
                </mxCell>
                <mxCell id="0nVcNducSjZmwcDjfCzQ-4" style="edgeStyle=orthogonalEdgeStyle;html=1;endArrow=block;endFill=1;entryX=0.75;entryY=0;entryDx=0;entryDy=0;exitX=0.25;exitY=0;exitDx=0;exitDy=0;" parent="dn2tQIHBhArKN0NqvlMN-1" source="0nVcNducSjZmwcDjfCzQ-2" target="0nVcNducSjZmwcDjfCzQ-0" edge="1">
                    <mxGeometry relative="1" as="geometry">
                        <mxPoint x="295" y="-400" as="sourcePoint"/>
                        <Array as="points">
                            <mxPoint x="331" y="-600"/>
                            <mxPoint x="213" y="-600"/>
                        </Array>
                    </mxGeometry>
                </mxCell>
                <mxCell id="0nVcNducSjZmwcDjfCzQ-5" value="sends [0..*]" style="edgeLabel;html=1;align=center;verticalAlign=middle;resizable=0;points=[];" parent="0nVcNducSjZmwcDjfCzQ-4" vertex="1" connectable="0">
                    <mxGeometry x="-0.264" y="-2" relative="1" as="geometry">
                        <mxPoint x="-36" as="offset"/>
                    </mxGeometry>
                </mxCell>
                <mxCell id="0nVcNducSjZmwcDjfCzQ-6" style="edgeStyle=orthogonalEdgeStyle;html=1;exitX=0.75;exitY=1;exitDx=0;exitDy=0;entryX=0.25;entryY=1;entryDx=0;entryDy=0;endArrow=none;endFill=0;startArrow=block;startFill=1;" parent="dn2tQIHBhArKN0NqvlMN-1" source="0nVcNducSjZmwcDjfCzQ-0" target="0nVcNducSjZmwcDjfCzQ-2" edge="1">
                    <mxGeometry relative="1" as="geometry">
                        <Array as="points">
                            <mxPoint x="213" y="-440"/>
                            <mxPoint x="331" y="-440"/>
                        </Array>
                    </mxGeometry>
                </mxCell>
                <mxCell id="0nVcNducSjZmwcDjfCzQ-7" value="receives [0..*]" style="edgeLabel;html=1;align=center;verticalAlign=middle;resizable=0;points=[];" parent="0nVcNducSjZmwcDjfCzQ-6" vertex="1" connectable="0">
                    <mxGeometry x="-0.1111" y="2" relative="1" as="geometry">
                        <mxPoint x="-2" y="-3" as="offset"/>
                    </mxGeometry>
                </mxCell>
                <mxCell id="gtYjE_q-y2A8Cv8z_Po0-0" style="edgeStyle=orthogonalEdgeStyle;html=1;entryX=0;entryY=0.5;entryDx=0;entryDy=0;startArrow=none;startFill=0;endArrow=block;endFill=1;exitX=1;exitY=0.25;exitDx=0;exitDy=0;jumpStyle=arc;" parent="dn2tQIHBhArKN0NqvlMN-1" source="wtLxXGc1vW-XllMx9_rD-12" target="0nVcNducSjZmwcDjfCzQ-3" edge="1">
                    <mxGeometry relative="1" as="geometry">
                        <Array as="points">
                            <mxPoint x="720" y="-545"/>
                            <mxPoint x="720" y="-680"/>
                            <mxPoint x="80" y="-680"/>
                            <mxPoint x="80" y="-510"/>
                        </Array>
                        <mxPoint x="350" y="-420" as="sourcePoint"/>
                        <mxPoint x="360" y="12.5" as="targetPoint"/>
                    </mxGeometry>
                </mxCell>
                <mxCell id="gtYjE_q-y2A8Cv8z_Po0-1" value="ldp:contains / as:items [0..*]" style="edgeLabel;html=1;align=center;verticalAlign=middle;resizable=0;points=[];" parent="gtYjE_q-y2A8Cv8z_Po0-0" vertex="1" connectable="0">
                    <mxGeometry x="0.599" y="-1" relative="1" as="geometry">
                        <mxPoint x="25" as="offset"/>
                    </mxGeometry>
                </mxCell>
                <mxCell id="FkbrT6HO-FMpfDbS1pJ9-0" style="edgeStyle=orthogonalEdgeStyle;html=1;entryX=0.25;entryY=1;entryDx=0;entryDy=0;startArrow=none;startFill=0;endArrow=block;endFill=1;exitX=0.5;exitY=1;exitDx=0;exitDy=0;" parent="dn2tQIHBhArKN0NqvlMN-1" source="wtLxXGc1vW-XllMx9_rD-9" target="0nVcNducSjZmwcDjfCzQ-3" edge="1">
                    <mxGeometry relative="1" as="geometry">
                        <Array as="points">
                            <mxPoint x="610" y="-220"/>
                            <mxPoint x="148" y="-220"/>
                        </Array>
                        <mxPoint x="600" y="-34.6875" as="sourcePoint"/>
                        <mxPoint x="350" y="-287.5" as="targetPoint"/>
                    </mxGeometry>
                </mxCell>
                <mxCell id="FkbrT6HO-FMpfDbS1pJ9-1" value="ldp:contains [0..*]" style="edgeLabel;html=1;align=center;verticalAlign=middle;resizable=0;points=[];" parent="FkbrT6HO-FMpfDbS1pJ9-0" vertex="1" connectable="0">
                    <mxGeometry x="0.4416" relative="1" as="geometry">
                        <mxPoint as="offset"/>
                    </mxGeometry>
                </mxCell>
                <mxCell id="c-ImVklMeWgoU2dXJ2wD-0" style="edgeStyle=orthogonalEdgeStyle;html=1;exitX=0;exitY=0.25;exitDx=0;exitDy=0;entryX=0;entryY=0.25;entryDx=0;entryDy=0;startArrow=block;startFill=1;endArrow=none;endFill=0;" parent="dn2tQIHBhArKN0NqvlMN-1" source="wtLxXGc1vW-XllMx9_rD-15" target="0nVcNducSjZmwcDjfCzQ-3" edge="1">
                    <mxGeometry relative="1" as="geometry">
                        <mxPoint x="480" y="-236.875" as="sourcePoint"/>
                        <mxPoint x="322.5" y="-250" as="targetPoint"/>
                    </mxGeometry>
                </mxCell>
                <mxCell id="c-ImVklMeWgoU2dXJ2wD-1" value="as:object / as:context [0..*]" style="edgeLabel;html=1;align=center;verticalAlign=middle;resizable=0;points=[];" parent="c-ImVklMeWgoU2dXJ2wD-0" vertex="1" connectable="0">
                    <mxGeometry x="0.2176" y="-3" relative="1" as="geometry">
                        <mxPoint x="26" as="offset"/>
                    </mxGeometry>
                </mxCell>
                <mxCell id="jmfGbja5v9POacWkd9jE-0" style="edgeStyle=orthogonalEdgeStyle;html=1;exitX=0.5;exitY=0.5;exitDx=0;exitDy=0;exitPerimeter=0;entryX=1;entryY=0.5;entryDx=0;entryDy=0;startArrow=none;startFill=0;endArrow=block;endFill=1;" parent="dn2tQIHBhArKN0NqvlMN-1" source="jmfGbja5v9POacWkd9jE-2" target="jmfGbja5v9POacWkd9jE-3" edge="1">
                    <mxGeometry relative="1" as="geometry"/>
                </mxCell>
                <mxCell id="jmfGbja5v9POacWkd9jE-1" value="has [1..1]" style="edgeLabel;html=1;align=center;verticalAlign=middle;resizable=0;points=[];" parent="jmfGbja5v9POacWkd9jE-0" vertex="1" connectable="0">
                    <mxGeometry x="0.0444" y="-2" relative="1" as="geometry">
                        <mxPoint x="-2" y="-13" as="offset"/>
                    </mxGeometry>
                </mxCell>
                <mxCell id="jmfGbja5v9POacWkd9jE-2" value="Agent&lt;br&gt;&lt;i style=&quot;font-size: 10px&quot;&gt;&lt;font color=&quot;#808080&quot;&gt;Person, social entity &lt;br&gt;or software&lt;/font&gt;&lt;/i&gt;" style="shape=umlActor;verticalLabelPosition=bottom;verticalAlign=top;html=1;outlineConnect=0;" parent="dn2tQIHBhArKN0NqvlMN-1" vertex="1">
                    <mxGeometry x="450" y="-395" width="30" height="60" as="geometry"/>
                </mxCell>
                <mxCell id="zQQmF5Zh5UZmNQujma9n-0" style="edgeStyle=orthogonalEdgeStyle;html=1;exitX=0.5;exitY=1;exitDx=0;exitDy=0;entryX=0.25;entryY=1;entryDx=0;entryDy=0;endArrow=block;endFill=1;" parent="dn2tQIHBhArKN0NqvlMN-1" source="jmfGbja5v9POacWkd9jE-3" target="wtLxXGc1vW-XllMx9_rD-9" edge="1">
                    <mxGeometry relative="1" as="geometry">
                        <Array as="points">
                            <mxPoint x="318" y="-240"/>
                            <mxPoint x="580" y="-240"/>
                        </Array>
                    </mxGeometry>
                </mxCell>
                <mxCell id="zQQmF5Zh5UZmNQujma9n-1" value="ldp:inbox [1..*]" style="edgeLabel;html=1;align=center;verticalAlign=middle;resizable=0;points=[];" parent="zQQmF5Zh5UZmNQujma9n-0" vertex="1" connectable="0">
                    <mxGeometry x="-0.0853" y="2" relative="1" as="geometry">
                        <mxPoint as="offset"/>
                    </mxGeometry>
                </mxCell>
                <mxCell id="jmfGbja5v9POacWkd9jE-3" value="WebID&lt;br&gt;&lt;i&gt;&lt;font style=&quot;font-size: 10px&quot; color=&quot;#808080&quot;&gt;Agent identifcation and profile information&lt;/font&gt;&lt;/i&gt;" style="rounded=1;whiteSpace=wrap;html=1;fillColor=none;" parent="dn2tQIHBhArKN0NqvlMN-1" vertex="1">
                    <mxGeometry x="257.5" y="-390" width="120" height="50" as="geometry"/>
                </mxCell>
                <mxCell id="xYjoRa64ZiDdma2zscbx-0" value="Collector&lt;br&gt;&lt;font style=&quot;font-size: 10px&quot; color=&quot;#808080&quot;&gt;&lt;i&gt;Browsing event logs and gathering information&lt;/i&gt;&lt;/font&gt;" style="rounded=1;whiteSpace=wrap;html=1;fillColor=default;" parent="dn2tQIHBhArKN0NqvlMN-1" vertex="1">
                    <mxGeometry x="740" y="-557.5" width="130" height="55" as="geometry"/>
                </mxCell>
            </root>
        </mxGraphModel>
    </diagram>
</mxfile>